<svg width="48" height="48" viewBox="0 0 48 48" fill="none" xmlns="http://www.w3.org/2000/svg">
<path d="M0 24C0 10.7452 10.7452 0 24 0V0C37.2548 0 48 10.7452 48 24V24C48 37.2548 37.2548 48 24 48V48C10.7452 48 0 37.2548 0 24V24Z" fill="white" fill-opacity="0.2"/>
<path d="M24 33C28.9706 33 33 28.9706 33 24C33 19.0294 28.9706 15 24 15C19.0294 15 15 19.0294 15 24C15 28.9706 19.0294 33 24 33Z" stroke="white" stroke-width="2" stroke-linecap="round" stroke-linejoin="round"/>
<path d="M18.6586 31.2444C19.9936 29.0327 21.8774 27.2036 24.1274 25.9343C26.3774 24.6651 28.9172 23.9987 31.5006 24C32.0065 24 32.5062 24.0247 32.9997 24.074" stroke="white" stroke-width="2" stroke-linecap="round" stroke-linejoin="round"/>
<path d="M29.6277 16.9775C28.2224 18.7049 26.4494 20.0969 24.438 21.0523C22.4265 22.0076 20.2273 22.5023 18.0005 22.5001C17.052 22.5005 16.1056 22.4115 15.1738 22.2341" stroke="white" stroke-width="2" stroke-linecap="round" stroke-linejoin="round"/>
<path d="M20.056 15.9082C22.3115 17.2316 24.1816 19.122 25.4807 21.3917C26.7798 23.6613 27.4627 26.2313 27.4615 28.8464C27.4624 30.0717 27.3134 31.2925 27.018 32.4817" stroke="white" stroke-width="2" stroke-linecap="round" stroke-linejoin="round"/>
</svg>
