<svg version="1.1" xmlns="http://www.w3.org/2000/svg" xmlns:xlink="http://www.w3.org/1999/xlink" x="0px" y="0px" viewBox="0 0 1000 1000" enable-background="new 0 0 1000 1000" xml:space="preserve">
<g><path d="M296.1,9.5l12.6,19.6c28.8,45,24.5,99.1,20.6,123.1c155.1,133.9,266.6,228.7,296.1,251.9c96.6-43.2,209.4-50.2,310.6-19.2l29.8,9.1L692.9,666.9L990,964l-26.5,26.5L666.3,693.4L393.5,966.3l-9.1-29.8c-31.6-102.9-24.7-212.8,19.2-310.6c-23.2-29.6-118.3-141.4-252.5-296.8c-10.2,1-20.2,1.6-29.9,1.6c-60.2,0-89.9-19.9-93.1-22.2L10,295.6L296.1,9.5L296.1,9.5z"/></g>
</svg>