<svg width="20" height="20" viewBox="0 0 20 20" fill="none" xmlns="http://www.w3.org/2000/svg">
<path d="M10 6.25V10" stroke="white" stroke-width="2" stroke-linecap="round" stroke-linejoin="round"/>
<path d="M13.2476 11.875L10 10" stroke="white" stroke-width="2" stroke-linecap="round" stroke-linejoin="round"/>
<path d="M5.61194 7.79004H2.48694V4.66504" stroke="white" stroke-width="2" stroke-linecap="round" stroke-linejoin="round"/>
<path d="M5.13859 14.8614C6.10007 15.8229 7.32508 16.4776 8.6587 16.7429C9.99232 17.0082 11.3747 16.872 12.6309 16.3517C13.8871 15.8313 14.9609 14.9501 15.7163 13.8196C16.4717 12.689 16.8749 11.3598 16.8749 10C16.8749 8.64026 16.4717 7.31105 15.7163 6.18046C14.9609 5.04987 13.8871 4.16868 12.6309 3.64833C11.3747 3.12798 9.99232 2.99183 8.6587 3.2571C7.32508 3.52238 6.10007 4.17716 5.13859 5.13864L2.48694 7.79029" stroke="white" stroke-width="2" stroke-linecap="round" stroke-linejoin="round"/>
</svg>
