<svg width="100" height="100" viewBox="0 0 100 100" fill="none" xmlns="http://www.w3.org/2000/svg">
<path d="M81.5 53C81.5 66.9413 62.5826 74.9129 51.9032 82.4858C41.2237 85.5149 35.5933 82.17 31.0002 64.5C27.1169 49.5601 38.4984 32 51.9032 32C65.3079 32 81.5 39.0587 81.5 53Z" fill="#FFC530" fill-opacity="0.1"/>
<path d="M45.374 52.1235V54.6812C45.374 55.9644 45.2026 57.1333 44.8599 58.188C44.5259 59.2427 44.0381 60.1479 43.3965 60.9038C42.7549 61.6597 41.9858 62.2441 41.0894 62.6572C40.1929 63.0615 39.1821 63.2637 38.0571 63.2637C36.9585 63.2637 35.9565 63.0615 35.0513 62.6572C34.146 62.2441 33.3682 61.6597 32.7178 60.9038C32.0762 60.1479 31.5796 59.2427 31.228 58.188C30.8853 57.1333 30.7139 55.9644 30.7139 54.6812V52.1235C30.7139 50.8315 30.8853 49.6626 31.228 48.6167C31.5796 47.562 32.0762 46.6567 32.7178 45.9009C33.3594 45.145 34.1284 44.5649 35.0249 44.1606C35.9302 43.7476 36.9321 43.541 38.0308 43.541C39.1558 43.541 40.1665 43.7476 41.063 44.1606C41.9595 44.5649 42.7285 45.145 43.3701 45.9009C44.0205 46.6567 44.5171 47.562 44.8599 48.6167C45.2026 49.6626 45.374 50.8315 45.374 52.1235ZM44.3193 54.6812V52.0972C44.3193 50.9722 44.1787 49.9482 43.8975 49.0254C43.6162 48.0938 43.2031 47.2939 42.6582 46.626C42.1221 45.958 41.4673 45.4438 40.6938 45.0835C39.9204 44.7144 39.0327 44.5298 38.0308 44.5298C37.0552 44.5298 36.1807 44.7144 35.4072 45.0835C34.6338 45.4438 33.979 45.958 33.4429 46.626C32.9067 47.2939 32.498 48.0938 32.2168 49.0254C31.9355 49.9482 31.7949 50.9722 31.7949 52.0972V54.6812C31.7949 55.8149 31.9355 56.8477 32.2168 57.7793C32.5068 58.7109 32.9199 59.5107 33.4561 60.1787C33.9922 60.8467 34.647 61.3652 35.4204 61.7344C36.2026 62.0947 37.0815 62.2749 38.0571 62.2749C39.0591 62.2749 39.9468 62.0947 40.7202 61.7344C41.4937 61.3652 42.1484 60.8467 42.6846 60.1787C43.2207 59.5107 43.625 58.7109 43.8975 57.7793C44.1787 56.8477 44.3193 55.8149 44.3193 54.6812ZM63.3301 54.1274V60.8511C63.1191 61.1499 62.7368 61.4883 62.1831 61.8662C61.6382 62.2441 60.9131 62.5737 60.0078 62.855C59.1025 63.1274 58.0083 63.2637 56.7251 63.2637C55.6177 63.2637 54.6025 63.0615 53.6797 62.6572C52.7656 62.2529 51.9746 61.6729 51.3066 60.917C50.6387 60.1523 50.1201 59.2471 49.751 58.2012C49.3906 57.1465 49.2104 55.9775 49.2104 54.6943V51.873C49.2104 50.6162 49.3818 49.4824 49.7246 48.4717C50.0762 47.4521 50.5728 46.5732 51.2144 45.835C51.856 45.0967 52.6206 44.5298 53.5083 44.1343C54.4048 43.7388 55.3979 43.541 56.4878 43.541C57.894 43.541 59.0762 43.7871 60.0342 44.2793C61.001 44.7627 61.7568 45.4219 62.3018 46.2568C62.8467 47.0918 63.1807 48.0322 63.3037 49.0781H62.2358C62.104 48.2695 61.8271 47.5225 61.4053 46.8369C60.9922 46.1426 60.3857 45.5845 59.5859 45.1626C58.7861 44.7319 57.7534 44.5166 56.4878 44.5166C55.5298 44.5166 54.6685 44.6968 53.9038 45.0571C53.1392 45.4087 52.4844 45.9097 51.9395 46.5601C51.4033 47.2104 50.9902 47.9839 50.7002 48.8804C50.4189 49.7769 50.2783 50.7656 50.2783 51.8467V54.6943C50.2783 55.8193 50.4277 56.8477 50.7266 57.7793C51.0342 58.7021 51.4692 59.502 52.0317 60.1787C52.603 60.8555 53.2842 61.3784 54.0752 61.7476C54.875 62.1079 55.7583 62.2881 56.7251 62.2881C57.7446 62.2881 58.6323 62.187 59.3882 61.9849C60.1528 61.7827 60.7725 61.541 61.2471 61.2598C61.7305 60.9697 62.0688 60.7017 62.2622 60.4556V55.1162H56.6724V54.1274H63.3301ZM81.998 52.1235V54.6812C81.998 55.9644 81.8267 57.1333 81.4839 58.188C81.1499 59.2427 80.6621 60.1479 80.0205 60.9038C79.3789 61.6597 78.6099 62.2441 77.7134 62.6572C76.8169 63.0615 75.8062 63.2637 74.6812 63.2637C73.5825 63.2637 72.5806 63.0615 71.6753 62.6572C70.77 62.2441 69.9922 61.6597 69.3418 60.9038C68.7002 60.1479 68.2036 59.2427 67.8521 58.188C67.5093 57.1333 67.3379 55.9644 67.3379 54.6812V52.1235C67.3379 50.8315 67.5093 49.6626 67.8521 48.6167C68.2036 47.562 68.7002 46.6567 69.3418 45.9009C69.9834 45.145 70.7524 44.5649 71.6489 44.1606C72.5542 43.7476 73.5562 43.541 74.6548 43.541C75.7798 43.541 76.7905 43.7476 77.687 44.1606C78.5835 44.5649 79.3525 45.145 79.9941 45.9009C80.6445 46.6567 81.1411 47.562 81.4839 48.6167C81.8267 49.6626 81.998 50.8315 81.998 52.1235ZM80.9434 54.6812V52.0972C80.9434 50.9722 80.8027 49.9482 80.5215 49.0254C80.2402 48.0938 79.8271 47.2939 79.2822 46.626C78.7461 45.958 78.0913 45.4438 77.3179 45.0835C76.5444 44.7144 75.6567 44.5298 74.6548 44.5298C73.6792 44.5298 72.8047 44.7144 72.0312 45.0835C71.2578 45.4438 70.603 45.958 70.0669 46.626C69.5308 47.2939 69.1221 48.0938 68.8408 49.0254C68.5596 49.9482 68.4189 50.9722 68.4189 52.0972V54.6812C68.4189 55.8149 68.5596 56.8477 68.8408 57.7793C69.1309 58.7109 69.5439 59.5107 70.0801 60.1787C70.6162 60.8467 71.271 61.3652 72.0444 61.7344C72.8267 62.0947 73.7056 62.2749 74.6812 62.2749C75.6831 62.2749 76.5708 62.0947 77.3442 61.7344C78.1177 61.3652 78.7725 60.8467 79.3086 60.1787C79.8447 59.5107 80.249 58.7109 80.5215 57.7793C80.8027 56.8477 80.9434 55.8149 80.9434 54.6812Z" fill="#FFC530"/>
<path d="M22.1129 19.7445C31.832 124.996 69.6938 70.8247 91.5046 48.523" stroke="#7EF520"/>
<path d="M22.4823 23.3759L21.6986 15.5868L6.79834 14.1082" stroke="#7EF520"/>
<path d="M24.0544 17.7929C33.9891 123.025 71.7398 68.7755 93.5049 46.4292" stroke="#7EF520"/>
<path d="M24.0641 17.8608L23.575 13.9415L18.0093 9.9209" stroke="#7EF520"/>
</svg>
