<svg width="20" height="20" viewBox="0 0 20 20" fill="none" xmlns="http://www.w3.org/2000/svg">
<path d="M3.52571 15.314C3.54519 15.3961 3.58109 15.4735 3.63126 15.5414C3.68142 15.6093 3.7448 15.6664 3.8176 15.7092C3.89039 15.752 3.97108 15.7796 4.05483 15.7904C4.13857 15.8012 4.22363 15.7949 4.30489 15.772C8.03061 14.7433 11.9654 14.7429 15.6913 15.7709C15.7725 15.7938 15.8576 15.8 15.9413 15.7893C16.025 15.7785 16.1056 15.7509 16.1784 15.7081C16.2512 15.6653 16.3146 15.6083 16.3647 15.5404C16.4149 15.4725 16.4508 15.3952 16.4703 15.3131L18.4616 6.85085C18.4883 6.73756 18.4828 6.61908 18.4457 6.50876C18.4087 6.39843 18.3416 6.30063 18.252 6.22639C18.1623 6.15214 18.0538 6.1044 17.9385 6.08852C17.8232 6.07265 17.7057 6.08929 17.5994 6.13655L13.6475 7.89293C13.5048 7.95635 13.3436 7.96406 13.1955 7.91453C13.0474 7.86501 12.9232 7.76183 12.8473 7.62533L10.5464 3.48358C10.4923 3.38615 10.4131 3.30496 10.317 3.24844C10.2209 3.19192 10.1115 3.16211 10 3.16211C9.88857 3.16211 9.77914 3.19192 9.68308 3.24844C9.58701 3.30496 9.50781 3.38615 9.45368 3.48358L7.15272 7.62533C7.07688 7.76183 6.95269 7.865 6.8046 7.91453C6.6565 7.96406 6.49523 7.95635 6.35253 7.89293L2.40008 6.13629C2.29375 6.08903 2.17634 6.07239 2.06107 6.08825C1.94579 6.10411 1.83724 6.15183 1.74762 6.22604C1.658 6.30025 1.59088 6.39801 1.55381 6.5083C1.51674 6.6186 1.51119 6.73705 1.5378 6.85033L3.52571 15.314Z" stroke="white" stroke-width="2" stroke-linecap="round" stroke-linejoin="round"/>
<path d="M7.5 12.6311C9.16208 12.4563 10.8379 12.4563 12.5 12.6311" stroke="white" stroke-width="2" stroke-linecap="round" stroke-linejoin="round"/>
</svg>
